<?xml version="1.0" encoding="utf-8"?>
<!-- Generator: Adobe Illustrator 23.0.6, SVG Export Plug-In . SVG Version: 6.00 Build 0)  -->
<svg version="1.1" id="Слой_1" xmlns="http://www.w3.org/2000/svg" xmlns:xlink="http://www.w3.org/1999/xlink" x="0px" y="0px"
	 viewBox="0 0 192.8 188" style="enable-background:new 0 0 192.8 188;" xml:space="preserve">
<style type="text/css">
	.st0{fill:#FFFFFF;}
	.st1{fill:url(#SVGID_1_);}
</style>
<g>
	<polygon class="st0" points="165.1,126.8 145.6,116 145.9,97.3 134.9,74 120.7,62.6 104.1,59.2 86.3,64.4 74.6,75 65.5,96.4 
		62.9,114.4 70.8,133.8 69.8,158.3 96.1,162 125.9,160.2 150.9,164.7 168,170.4 164.3,131.2 	"/>
	
		<linearGradient id="SVGID_1_" gradientUnits="userSpaceOnUse" x1="13.9725" y1="-32.8927" x2="143.5031" y2="-32.8927" gradientTransform="matrix(0.9999 1.041189e-02 -1.041189e-02 0.9999 21.5718 127.1552)">
		<stop  offset="0" style="stop-color:#EF645E"/>
		<stop  offset="1" style="stop-color:#EB1E6F"/>
	</linearGradient>
	<polygon class="st1" points="69.8,158.3 71.6,130.3 64.4,121.4 65.9,86.8 81.3,67.8 104.1,59.2 124.3,62.6 137.7,81.3 145.9,97.3 
		145.6,116 165.1,126.8 164.9,78 151.2,52.7 126.8,36.2 102.2,31.5 74.1,38.3 46.7,61.8 35.9,90.5 40.3,122.1 56.8,149.6 	"/>
	<path d="M172.3,169.6c-0.3-1.7-0.7-3.4-0.8-5.1c-0.8-7.9-1.7-15.8-2.4-23.7c-0.9-9.7-1.2-19.4,0.2-33c0-4.3,0.2-12.5-0.1-20.7
		c-0.4-8.3-2.8-16.2-6.5-23.6c-4.6-9.3-11.5-16.7-19.4-23.1c-10-8.1-21.5-13.1-34.5-14c-6.2-0.4-12.3,0-18.3,1.6
		c-5.9,1.5-11.6,3.5-16.9,6.5c-1.4,0.8-2.9,1.6-4.3,2.4c-1.8,1-2.9,0.5-2.8-1.4c0.1-3.4,0.1-6.9,1-10.2c0.8-3.4,2.5-6.6,3.9-9.8
		c0.7-1.7,0.7-2.9-0.5-4.3c-1.1-1.1-2.6-1.6-3.8-0.8c-0.9,0.6-1.8,1.4-2.3,2.3c-2.8,5.3-4.9,10.8-5.2,16.8c-0.1,1.8-0.1,3.5-0.2,5.3
		c0,0.6-0.5,1.2-1.1,1.3c-0.9,0.2-1.3-0.5-1.8-0.9c-4.4-4.2-9.3-7.7-14.5-10.9c-7.7-4.8-15.9-8.7-24.3-12.3c-3.4-1.5-6.9-2.8-10.5-4
		c-1.9-0.7-3.9,0.3-4.6,2c-0.7,1.7,0.2,3.7,2,4.6c0.3,0.1,0.6,0.3,0.9,0.4c3.4,1.4,6.9,2.5,10.3,4.1C23.7,22.6,31.6,26.2,39,31
		c3.4,2.2,6.6,4.7,9.9,7.2c0.5,0.4,0.6,1.1,1,1.6c-0.6,0.2-1.2,0.5-1.8,0.4c-1.2-0.1-2.4-0.3-3.6-0.5c-6.7-1.1-13.4-2.2-20.3-1.9
		c-4,0.1-7.9,0.7-11.8,1.2c-1.6,0.2-2.9,1.2-3.3,2.9c-0.5,2.4,1.4,4.4,3.9,4.2c2.9-0.3,5.9-0.9,8.8-1c10.1-0.4,19.9,1.4,29.7,3.3
		c1.7,0.3,1.9,1.4,0.7,2.8c-1.2,1.4-2.5,2.8-3.7,4.3c-5,6.1-8.6,12.9-11.2,20.3c-2.8,8.1-4.2,16.5-4.1,25.2c0.1,6,0.7,11.9,2.3,17.7
		c2,7.3,4.9,14.3,9.1,20.7c4,6.1,8.5,11.7,14.4,16.1c7.2,5.3,15.4,8.3,24.2,9.7c7.1,1.1,14.3,1.2,21.5,0.9c5.3-0.2,10.6-0.8,16-1.2
		c2.9-0.2,5.7-0.7,8.6-0.5c8,0.5,15.7,2.6,23.3,4.9c5,1.5,9.8,3.4,14.7,5C170.5,175.3,173,172.9,172.3,169.6z M104.1,84.2
		c0.6-0.6,3.3-3.2,8.5-2.7c4.6,0.4,4.9,1.8,5.2,3.8c0,0.1,0,0.3,0.1,0.4c0,0.1,0,0.2,0.1,0.4c0.5,2.6-0.3,9.4-1.7,15.6
		c-1.6,6.7-3.2,9.7-3.9,10.6c-1-1.1-3.3-4.4-5.9-11.5c-1.4-3.9-2.2-7.7-2.5-11.8C103.6,85.8,104,84.5,104.1,84.2z M76.7,77.1
		c2.1-2.6,4.4-4.9,7-6.9c11.6-8.8,24.3-7.9,27.9-7.5c6.6,0.9,12.6,4.1,17.6,9.5L76.7,77.1z M60.3,143.7c-2.4-2.3-4.7-4.7-6.8-7.4
		c-5.2-6.7-9-14.2-11-22.5c-4.4-18.2-1.5-35.2,9-50.8c7.2-10.7,16.9-18.2,28.8-22.8c14.7-5.6,29.5-5.6,44.3-0.1
		c9.7,3.7,18.6,8.9,24.8,17.2c18.2,24.6,12.3,59.5,12.1,61.6c0,0.9-0.1,1.8-0.1,2.8c-1.6-1-3.2-2-5-3l-3.7-2.2
		c-1.8-1.1-3.4-2-4.2-2.6c1.3-5.2,1.9-13.8-4.8-29.2c8.4-5.7,12.7-15.1,12.7-15.1L136,71.5c-6.3-8.1-14.3-13-23.6-14.3
		c-11-1.5-23,1.7-32,8.5c-4.3,3.3-7.9,7.3-10.8,12l-15.4,1.4c0.1,0.1-0.7,1.2,2.7,4.9c2.2,2.5,5,4.3,7.2,5.6
		c-1.4,4.2-2.4,8.8-3.1,13.7c-0.1,0.5-0.1,1.1-0.2,1.6c0,0.1,0,0.2-0.1,0.2c-0.5,2.8-0.6,5.9-0.2,9c0.3,3.5,1,6.3,2.4,9.2
		c0.8,1.8,1.7,3.5,2.8,5c0.8,1.4,1.7,3.2,2.4,5.4c0.2,0.8,0.5,6.6,0.3,16.7l0,0.7C65.4,149.2,62.4,146.4,60.3,143.7z M161.7,164.5
		c-8.3-2.7-16.6-5.3-25.2-6.8c-5-0.9-10.1-1-15.1-0.5c-11.4,1.1-22.9,2.1-34.4,0.7c-0.4,0-0.8-0.1-1.2-0.2c-0.7-0.1-1.4-0.2-2-0.3
		c-0.2,0-0.5-0.1-0.7-0.1c-0.2,0-0.3-0.1-0.5-0.1c-0.2,0-0.4-0.1-0.6-0.1c-2.9-0.6-5.7-1.6-8.3-2.8c0.1-5.1,0.2-13.3-0.1-18.2
		c6.3,4,14.4,5.7,24.3,5.2l0.1,0c1.4-0.1,2.5-1.4,2.5-2.9c0-0.7-0.4-1.4-0.9-1.9c-0.6-0.5-1.3-0.7-2-0.7
		c-11.7,0.6-20.5-2.3-25.9-8.5c-0.8-0.9-1.5-1.9-2.1-2.9l-0.2-0.4c-0.2-0.4-0.4-0.7-0.6-1c-2.9-5.4-3.1-11-3-13.8
		c0-0.3,0-0.7,0.1-1.1l0-0.1c0.1-0.7,0.1-1.3,0.2-1.9c0-0.3,0.1-0.6,0-0.8c0-0.4,0.1-0.8,0.2-1.3c0.6-4.3,1.4-8.2,2.6-11.8
		c10.3,4.3,23.1-0.4,24-0.8c2.9-1.3,4.7-2.6,6.1-3.8c0,0.5,0,1,0.1,1.6c0.3,4.8,1.2,9,2.8,13.2c1.6,4.3,3.3,7.8,4.8,10.3
		c1.8,2.9,3.3,4.4,5,4.6c0.3,0.1,0.6,0.1,0.9,0c1.4-0.1,2.6-0.9,3.7-2.4c4.1-5.5,7.2-22.6,6.6-28.9c3.2,1.9,7.1,3.3,11.2,2.6
		c1.6-0.3,3.1-0.7,4.5-1.3c6.1,14.2,5.3,21.5,4.1,25.8c-0.2,0.9-0.7,2.8,1.4,4.6c1,0.8,2.6,1.8,6.1,3.9l3.8,2.2c2.6,1.5,5,3,7.3,4.5
		c0,6.5,0.4,12.7,1,19.1c0.5,5.1,1.1,10.2,1.7,15.3C164.2,164.7,163.7,165.1,161.7,164.5z"/>
</g>
</svg>
